<?xml version="1.0" standalone="no"?>
<!DOCTYPE svg PUBLIC "-//W3C//DTD SVG 20010904//EN"
 "http://www.w3.org/TR/2001/REC-SVG-20010904/DTD/svg10.dtd">
<svg version="1.0" xmlns="http://www.w3.org/2000/svg"
 width="260.000000pt" height="260.000000pt" viewBox="0 0 260.000000 260.000000"
 preserveAspectRatio="xMidYMid meet">
<metadata>
Created by potrace 1.11, written by Peter Selinger 2001-2013
</metadata>
<g transform="translate(0.000000,260.000000) scale(0.100000,-0.100000)"
fill="#000000" stroke="none">
<path d="M240 1364 c0 -159 6 -182 60 -228 70 -58 154 -57 225 5 41 36 59 86
52 145 -12 111 -119 177 -225 140 l-42 -15 0 48 c0 48 0 48 -35 49 l-35 1 0
-145z m210 -9 c99 -51 70 -181 -42 -190 -41 -4 -98 51 -98 93 0 46 19 79 54
96 39 19 50 20 86 1z"/>
<path d="M1344 1502 c-7 -5 -11 -75 -11 -208 l1 -200 32 -2 c35 -3 41 6 39 58
-2 32 13 60 32 60 5 0 35 -27 67 -60 51 -52 64 -60 96 -60 20 0 40 3 44 7 3 4
-30 44 -75 89 l-81 82 83 81 c45 44 81 82 78 82 -2 1 -23 3 -46 4 -41 3 -46 0
-117 -71 -41 -41 -77 -71 -79 -66 -3 4 -4 48 -3 97 1 50 0 96 -2 103 -5 13
-40 16 -58 4z"/>
<path d="M714 1420 c-135 -61 -131 -254 6 -311 52 -22 87 -21 153 6 12 5 17 2
17 -10 0 -12 8 -16 33 -13 l32 3 2 90 c2 102 -8 151 -38 189 -45 58 -136 78
-205 46z m130 -74 c77 -50 41 -175 -52 -181 -101 -7 -146 132 -60 185 36 22
76 20 112 -4z"/>
<path d="M994 1427 c-2 -7 -3 -85 -2 -172 l3 -160 32 -3 31 -3 4 115 c3 129
12 148 75 161 28 6 38 2 63 -23 30 -30 30 -31 30 -141 l0 -111 35 0 35 0 0
118 c0 110 -2 121 -26 158 -39 60 -105 83 -179 62 -17 -5 -33 -4 -39 2 -14 14
-56 12 -62 -3z"/>
<path d="M1784 1425 c-138 -59 -143 -244 -9 -312 36 -19 60 -21 230 -21 105
-1 207 3 227 9 106 28 158 145 108 243 -21 42 -48 65 -97 83 -46 17 -419 15
-459 -2z m199 -73 c30 16 76 12 99 -8 15 -15 22 -16 36 -6 62 44 126 35 158
-23 23 -43 17 -49 -60 -64 -66 -12 -71 -15 -61 -30 9 -16 61 -13 75 4 15 18
36 20 46 4 10 -17 -37 -57 -71 -62 -16 -2 -42 2 -57 9 -34 17 -38 17 -38 0 0
-8 -8 -13 -17 -11 -10 2 -21 4 -24 4 -3 1 -6 28 -7 61 0 64 -13 90 -42 90 -29
0 -41 -25 -43 -92 -2 -57 -5 -63 -25 -64 -23 -1 -26 9 -23 88 2 58 -39 87 -74
52 -12 -13 -16 -32 -14 -78 3 -63 3 -63 -41 -57 -6 1 -9 36 -8 94 3 87 4 92
26 95 12 2 22 -1 22 -7 0 -6 11 -4 27 4 22 12 31 12 61 0 26 -11 39 -12 55 -3z"/>
<path d="M2161 1314 c-39 -27 -27 -43 24 -31 47 11 54 25 18 38 -13 5 -28 2
-42 -7z"/>
</g>
</svg>
